<?xml version="1.0" standalone="no"?>
<!DOCTYPE svg PUBLIC "-//W3C//DTD SVG 20010904//EN"
 "http://www.w3.org/TR/2001/REC-SVG-20010904/DTD/svg10.dtd">
<svg version="1.0" xmlns="http://www.w3.org/2000/svg"
 width="512.000000pt" height="512.000000pt" viewBox="0 0 512.000000 512.000000"
 preserveAspectRatio="xMidYMid meet">

<g transform="translate(0.000000,512.000000) scale(0.100000,-0.100000)"
fill="#000000" stroke="none">
<path d="M2352 5097 c-20 -21 -22 -34 -22 -130 0 -122 15 -107 -125 -127 -621
-90 -1210 -469 -1569 -1010 -182 -275 -311 -605 -356 -915 -20 -140 -5 -125
-128 -125 -156 0 -152 7 -152 -231 0 -236 -5 -229 153 -229 122 0 107 15 127
-125 32 -225 127 -509 242 -725 335 -626 948 -1072 1637 -1190 69 -12 136 -24
149 -26 21 -4 22 -8 22 -108 0 -89 3 -107 21 -130 l20 -26 188 0 c238 0 231
-5 231 153 0 122 -15 107 125 127 105 15 287 61 400 100 793 281 1376 964
1515 1779 12 69 24 136 26 149 4 21 8 22 112 22 156 0 152 -7 152 231 0 236 5
229 -153 229 -122 0 -107 -15 -127 125 -32 225 -127 509 -242 725 -335 627
-959 1081 -1638 1191 -69 12 -135 23 -147 25 -22 4 -23 8 -23 112 0 156 7 152
-231 152 -181 0 -186 -1 -207 -23z m298 -221 c0 -137 6 -144 120 -157 1025
-111 1818 -892 1944 -1915 19 -153 20 -154 162 -154 l104 0 0 -90 0 -90 -104
0 c-142 0 -143 -1 -161 -150 -35 -278 -97 -484 -221 -733 -324 -648 -956
-1091 -1690 -1181 -153 -19 -154 -20 -154 -162 l0 -104 -90 0 -90 0 0 103 c0
117 -11 143 -63 151 -18 3 -84 12 -148 21 -694 94 -1320 543 -1633 1172 -123
247 -186 457 -221 733 -18 149 -19 150 -161 150 l-104 0 0 90 0 90 104 0 c142
0 143 1 161 150 46 367 165 685 366 981 361 528 933 868 1579 938 114 13 120
20 120 157 l0 104 90 0 90 0 0 -104z"/>
<path d="M2225 4521 c-495 -88 -918 -338 -1227 -726 -225 -282 -388 -684 -414
-1021 -6 -74 -5 -83 15 -103 19 -19 32 -21 141 -21 l120 0 0 -90 0 -90 -120 0
c-109 0 -122 -2 -141 -21 -20 -20 -21 -29 -16 -98 27 -341 189 -742 415 -1026
290 -364 699 -616 1150 -711 64 -13 154 -27 198 -30 74 -6 83 -5 103 15 19 19
21 32 21 141 l0 120 90 0 90 0 0 -120 c0 -109 2 -122 21 -141 20 -20 29 -21
98 -16 266 21 592 132 839 285 462 287 787 751 898 1280 13 64 27 154 30 198
6 74 5 83 -15 103 -19 19 -32 21 -141 21 l-120 0 0 90 0 90 120 0 c109 0 122
2 141 21 20 20 21 29 15 103 -3 44 -17 134 -30 198 -95 451 -347 860 -711
1150 -284 226 -685 388 -1026 415 -69 5 -78 4 -98 -16 -19 -19 -21 -32 -21
-141 l0 -120 -90 0 -90 0 0 120 c0 107 -2 122 -20 140 -25 25 -86 25 -225 1z
m105 -243 c0 -163 -8 -158 229 -158 239 0 231 -5 231 158 l0 115 62 -7 c168
-19 430 -110 612 -212 194 -108 389 -271 526 -439 136 -167 257 -385 323 -585
35 -106 77 -287 77 -334 l0 -26 -112 0 c-164 0 -158 8 -158 -231 l0 -188 26
-20 c23 -18 41 -21 135 -21 l109 0 0 -26 c0 -46 -41 -224 -77 -333 -178 -541
-623 -986 -1164 -1164 -109 -36 -287 -77 -333 -77 l-26 0 0 112 c0 163 8 158
-229 158 -239 0 -231 5 -231 -157 0 -133 11 -125 -141 -93 -350 72 -650 229
-902 470 -55 52 -125 127 -157 165 -136 167 -257 385 -323 585 -35 106 -77
287 -77 334 l0 26 110 0 c104 0 112 1 135 25 25 24 25 26 25 206 0 237 5 229
-158 229 l-115 0 7 62 c25 218 143 519 289 738 220 331 569 597 949 724 111
37 269 73 326 75 l32 1 0 -112z"/>
<path d="M2395 3924 c-325 -49 -588 -178 -804 -395 -191 -191 -318 -425 -377
-699 -26 -120 -26 -420 0 -540 119 -550 526 -957 1076 -1076 119 -26 420 -26
538 -1 356 78 649 270 856 561 99 138 192 359 227 541 21 106 18 408 -4 513
-119 544 -517 948 -1057 1074 -83 19 -379 33 -455 22z m376 -150 c357 -62 670
-280 857 -599 169 -289 209 -677 102 -997 -37 -110 -98 -232 -163 -327 l-51
-74 -17 84 c-32 160 -83 253 -197 361 -79 74 -165 120 -279 149 -78 19 -105
20 -495 17 l-413 -4 -72 -26 c-97 -36 -155 -71 -229 -141 -110 -102 -161 -198
-193 -356 l-17 -84 -52 77 c-329 475 -290 1105 97 1536 170 190 439 339 696
384 111 20 311 20 426 0z m222 -1539 c144 -37 262 -132 323 -257 43 -91 56
-154 52 -264 l-3 -89 -70 -53 c-311 -234 -749 -305 -1119 -181 -115 38 -262
115 -351 181 l-70 53 -3 89 c-4 110 9 173 52 264 60 123 178 219 319 257 78
21 789 21 870 0z"/>
<path d="M2420 3437 c-90 -38 -126 -65 -184 -141 -54 -72 -76 -155 -76 -296 0
-141 22 -224 76 -296 51 -67 81 -91 154 -127 61 -30 72 -32 170 -32 97 0 110
2 170 31 109 52 184 143 214 259 21 78 21 252 0 330 -30 116 -105 207 -214
259 -56 27 -78 31 -160 34 -81 2 -103 -1 -150 -21z m259 -144 c55 -27 105 -84
128 -146 6 -18 11 -84 11 -147 0 -63 -5 -129 -11 -147 -85 -230 -411 -232
-492 -3 -20 57 -20 243 0 300 52 147 223 214 364 143z"/>
</g>
</svg>
