<?xml version="1.0" standalone="no"?>
<!DOCTYPE svg PUBLIC "-//W3C//DTD SVG 20010904//EN"
 "http://www.w3.org/TR/2001/REC-SVG-20010904/DTD/svg10.dtd">
<svg version="1.0" xmlns="http://www.w3.org/2000/svg"
 width="512.000000pt" height="512.000000pt" viewBox="0 0 512.000000 512.000000"
 preserveAspectRatio="xMidYMid meet">

<g transform="translate(0.000000,512.000000) scale(0.100000,-0.100000)"
fill="#000000" stroke="none">
<path d="M2425 5026 c-120 -28 -199 -66 -285 -135 l-44 -36 -111 -1 c-132 -1
-209 -20 -320 -77 -157 -81 -289 -249 -326 -411 -12 -53 -15 -57 -68 -87 -90
-51 -191 -160 -240 -259 -91 -187 -93 -379 -6 -557 49 -100 130 -218 169 -248
l33 -25 -14 -53 c-33 -121 7 -273 98 -371 54 -59 162 -113 247 -123 l64 -8 28
-68 c89 -207 283 -452 454 -572 l57 -40 -4 -67 c-5 -77 -37 -142 -90 -182 -17
-13 -231 -105 -474 -204 -480 -197 -531 -220 -643 -295 -96 -64 -263 -231
-327 -327 -138 -207 -207 -416 -220 -667 l-6 -133 2163 0 2163 0 -6 132 c-13
252 -82 461 -220 668 -64 96 -231 263 -327 327 -112 75 -176 104 -650 298
-239 97 -450 188 -467 201 -53 40 -85 105 -90 182 l-4 67 57 40 c171 120 366
367 454 572 l28 68 64 8 c85 10 193 64 247 123 88 95 127 232 101 354 l-13 60
42 45 c130 142 221 350 221 510 0 209 -127 436 -302 538 -63 37 -65 40 -77 93
-37 162 -169 330 -326 411 -111 57 -188 76 -320 77 l-111 1 -44 36 c-63 51
-143 94 -225 119 -90 28 -246 35 -330 16z m286 -176 c80 -24 147 -66 211 -132
l49 -51 56 12 c292 58 564 -126 603 -408 6 -41 11 -75 13 -76 186 -89 242
-137 303 -260 34 -69 39 -87 42 -170 3 -67 0 -108 -13 -151 -21 -71 -82 -185
-131 -242 l-36 -42 -49 35 c-26 20 -72 45 -101 55 l-53 18 -5 108 -5 108 -238
143 c-131 79 -244 143 -250 143 -7 0 -62 -50 -122 -110 -61 -61 -115 -108
-122 -105 -7 2 -76 52 -153 110 -76 58 -144 105 -150 105 -6 0 -74 -47 -150
-105 -77 -58 -146 -108 -153 -110 -7 -3 -61 44 -122 105 -60 60 -115 110 -122
110 -6 0 -119 -64 -250 -143 l-238 -143 -5 -108 -5 -108 -53 -18 c-29 -10 -75
-35 -102 -54 l-49 -35 -36 41 c-48 57 -109 171 -130 242 -13 43 -16 84 -13
151 3 82 8 101 41 168 60 122 122 175 304 262 2 1 7 35 13 76 39 282 311 466
602 408 l56 -11 56 55 c103 104 204 146 352 146 64 1 111 -5 155 -19z m-616
-1220 l110 -110 -263 0 c-243 0 -262 1 -262 18 0 11 51 47 153 109 84 50 152
92 152 92 0 1 50 -48 110 -109z m612 0 l146 -110 -293 0 -293 0 144 109 c79
60 145 110 147 110 1 1 68 -48 149 -109z m610 -2 c182 -108 182 -108 -139
-108 l-263 0 110 110 109 109 31 -19 c16 -11 85 -52 152 -92z m123 -390 c0
-128 -13 -264 -33 -345 -11 -42 -17 -51 -57 -71 -43 -22 -53 -23 -251 -20
l-206 3 -36 28 c-21 16 -49 50 -62 78 l-25 49 -210 0 -210 0 -25 -49 c-13 -28
-41 -62 -62 -78 l-36 -28 -206 -3 c-198 -3 -208 -2 -251 20 -40 20 -46 29 -57
71 -20 81 -33 217 -33 345 l0 122 880 0 880 0 0 -122z m-1917 -120 c4 -79 14
-177 22 -218 18 -92 18 -90 0 -90 -47 0 -127 64 -161 130 -26 50 -25 153 3
205 27 51 94 113 124 115 3 0 9 -64 12 -142z m2115 128 c72 -38 116 -116 116
-206 0 -70 -16 -114 -63 -163 -40 -44 -131 -85 -131 -59 0 4 7 41 15 82 8 41
18 139 22 218 3 78 8 142 10 142 2 0 16 -6 31 -14z m-931 -495 c26 -30 65 -60
100 -78 58 -28 59 -28 286 -31 156 -2 227 -7 227 -14 0 -6 -21 -49 -47 -94
-139 -249 -346 -442 -601 -561 -74 -35 -102 -43 -127 -39 -44 9 -205 91 -295
151 -92 62 -251 217 -315 308 -56 81 -135 216 -135 234 0 9 58 12 228 15 226
3 227 3 285 31 35 18 74 48 100 78 l42 49 105 0 105 0 42 -49z m-277 -948 c58
-25 100 -38 130 -38 30 0 72 13 130 38 47 21 91 41 97 44 7 3 14 -1 16 -8 2
-8 14 -45 26 -83 l23 -69 -146 -146 -146 -146 -146 146 -146 146 23 69 c12 38
24 75 26 83 2 7 9 11 16 8 6 -3 50 -23 97 -44z m333 -436 c185 185 204 200
225 191 12 -6 22 -16 22 -22 0 -6 -96 -299 -213 -651 -201 -603 -215 -640
-237 -640 -22 0 -36 37 -237 640 -117 352 -213 645 -213 651 0 6 10 16 23 22
20 9 39 -6 225 -191 l202 -202 203 202z m-700 -212 c58 -173 100 -312 94 -308
-13 7 -287 211 -300 223 -11 9 53 383 67 392 6 4 16 8 23 8 6 0 58 -141 116
-315z m1133 307 c14 -9 78 -383 67 -392 -13 -12 -287 -216 -300 -223 -6 -4 36
135 94 308 58 174 110 315 116 315 7 0 17 -4 23 -8z m-1466 -99 c0 -10 -13
-94 -29 -188 -16 -93 -28 -170 -27 -171 1 -1 288 -215 294 -220 2 -1 -32 -54
-74 -119 l-78 -116 155 -155 154 -154 -383 0 -382 0 0 240 0 240 -80 0 -80 0
0 -240 0 -240 -319 0 -320 0 5 37 c37 270 144 492 320 667 79 78 182 154 269
198 58 30 553 237 568 238 4 0 7 -8 7 -17z m1917 -84 c286 -117 352 -149 448
-217 254 -180 415 -456 459 -785 l5 -37 -320 0 -319 0 0 240 0 240 -80 0 -80
0 0 -240 0 -240 -382 0 -383 0 154 154 155 155 -78 116 c-42 65 -76 118 -74
119 6 5 293 219 294 220 1 1 -11 78 -27 171 -30 175 -33 205 -23 205 3 0 116
-45 251 -101z m-1369 -767 c50 -149 87 -272 84 -272 -4 0 -81 74 -171 164
l-164 164 74 115 c41 63 77 112 80 108 4 -3 47 -129 97 -279z m812 59 c0 -8
-323 -331 -332 -331 -5 0 143 459 177 549 4 9 34 -28 80 -98 41 -62 75 -116
75 -120z"/>
<path d="M2244 2513 c13 -100 85 -196 181 -244 41 -20 65 -24 135 -24 70 0 94
4 135 24 96 48 168 144 181 244 l7 47 -81 0 -81 0 -7 -36 c-9 -49 -69 -109
-118 -118 -20 -4 -52 -4 -72 0 -48 9 -111 71 -120 118 l-6 36 -80 0 -81 0 7
-47z"/>
</g>
</svg>
