<?xml version="1.0" standalone="no"?>
<!DOCTYPE svg PUBLIC "-//W3C//DTD SVG 20010904//EN"
 "http://www.w3.org/TR/2001/REC-SVG-20010904/DTD/svg10.dtd">
<svg version="1.0" xmlns="http://www.w3.org/2000/svg"
 width="512.000000pt" height="512.000000pt" viewBox="0 0 512.000000 512.000000"
 preserveAspectRatio="xMidYMid meet">

<g transform="translate(0.000000,512.000000) scale(0.100000,-0.100000)"
fill="#000000" stroke="none">
<path d="M580 5058 c-68 -46 -75 -67 -73 -194 5 -264 65 -658 163 -1069 31
-132 130 -470 157 -537 l15 -37 -55 -68 c-106 -133 -281 -411 -372 -593 -157
-312 -293 -692 -375 -1047 -16 -72 -30 -134 -30 -137 0 -3 42 28 94 68 289
226 584 328 856 295 52 -6 98 -13 101 -14 3 -2 11 73 18 168 55 783 307 1415
730 1835 185 183 407 328 616 403 l50 18 -40 0 c-55 1 -218 -24 -311 -48 l-76
-19 -131 135 c-336 346 -710 625 -1071 799 -154 74 -207 82 -266 42z m560
-1511 c0 -2 -10 -12 -22 -23 l-23 -19 19 23 c18 21 26 27 26 19z"/>
<path d="M4272 5015 c-360 -174 -731 -451 -1067 -795 -84 -87 -124 -135 -115
-138 57 -15 249 -92 315 -125 98 -49 316 -190 410 -265 127 -102 261 -229 360
-341 53 -61 101 -111 105 -111 8 0 44 108 114 340 112 375 213 970 219 1284 2
127 -5 148 -73 194 -60 40 -115 31 -268 -43z"/>
<path d="M1593 2574 c-61 -22 -136 -94 -164 -156 -22 -48 -24 -66 -24 -203 0
-136 2 -154 23 -196 31 -64 86 -117 150 -147 74 -34 186 -29 255 11 60 36 113
98 133 160 25 74 25 284 1 354 -23 65 -81 131 -143 163 -61 31 -168 37 -231
14z m161 -83 c15 -10 37 -32 47 -47 52 -79 -15 -184 -117 -184 -29 0 -44 8
-75 39 -33 32 -39 45 -39 80 0 98 106 163 184 112z"/>
<path d="M3300 2558 c-71 -37 -129 -102 -149 -168 -17 -58 -14 -297 5 -352 19
-58 73 -120 131 -155 69 -40 181 -45 255 -11 64 30 119 83 150 147 21 42 23
60 23 201 0 141 -2 159 -23 201 -51 103 -136 160 -252 167 -70 4 -79 2 -140
-30z m180 -63 c44 -23 70 -62 70 -107 0 -136 -176 -177 -233 -55 -21 44 -21
64 1 105 34 64 102 88 162 57z"/>
<path d="M2460 1174 c-123 -26 -226 -125 -237 -228 -13 -111 30 -181 163 -268
l94 -62 0 -123 0 -123 27 6 c35 9 71 9 106 0 l27 -6 0 129 0 129 68 40 c186
111 230 248 126 394 -37 53 -124 102 -208 117 -73 13 -84 13 -166 -5z"/>
</g>
</svg>
