<?xml version="1.0" standalone="no"?>
<!DOCTYPE svg PUBLIC "-//W3C//DTD SVG 20010904//EN"
 "http://www.w3.org/TR/2001/REC-SVG-20010904/DTD/svg10.dtd">
<svg version="1.0" xmlns="http://www.w3.org/2000/svg"
 width="512.000000pt" height="512.000000pt" viewBox="0 0 512.000000 512.000000"
 preserveAspectRatio="xMidYMid meet">

<g transform="translate(0.000000,512.000000) scale(0.100000,-0.100000)"
fill="#000000" stroke="none">
<path d="M1019 5107 c-321 -89 -533 -719 -589 -1747 -13 -247 -25 -335 -57
-424 -50 -138 -127 -231 -240 -288 -78 -39 -119 -88 -129 -155 -12 -83 6 -117
121 -228 l104 -101 -37 -40 c-20 -22 -62 -59 -93 -82 -112 -84 -129 -207 -42
-302 39 -44 410 -372 638 -565 645 -546 1207 -943 1535 -1086 267 -115 427
-111 704 19 163 78 358 196 591 360 192 136 218 167 218 262 0 84 -45 151
-125 184 -77 32 -137 16 -248 -65 -189 -140 -510 -341 -614 -384 -37 -15 -33
-11 42 60 99 93 167 177 217 268 37 67 37 69 51 250 68 911 281 1536 571 1678
39 20 64 24 133 24 77 0 92 -3 154 -34 129 -63 220 -176 396 -491 105 -186
166 -285 219 -349 l35 -43 -25 -22 c-215 -177 -443 -384 -459 -416 -77 -150
65 -324 228 -281 49 14 91 46 383 302 327 286 385 342 405 394 31 81 1 179
-69 226 -18 12 -58 47 -89 77 l-57 56 104 100 c113 109 134 150 120 225 -14
76 -49 117 -137 162 -115 58 -208 188 -249 346 -14 55 -24 151 -35 323 -63
1045 -246 1635 -550 1772 -100 45 -272 19 -442 -66 -131 -67 -224 -137 -358
-270 -123 -123 -193 -210 -302 -372 l-61 -92 -44 9 c-170 31 -496 34 -706 5
l-92 -12 -66 99 c-192 291 -432 523 -660 637 -138 69 -305 101 -394 77z m215
-436 c145 -71 307 -220 447 -413 46 -63 49 -70 30 -75 -45 -12 -244 -103 -335
-153 -109 -61 -160 -109 -176 -171 -21 -79 13 -168 83 -216 34 -24 51 -28 106
-28 62 0 72 4 166 57 386 218 858 301 1325 232 258 -38 473 -113 730 -255 68
-37 80 -41 133 -37 100 7 173 79 185 183 3 35 -1 57 -22 99 -22 45 -38 62 -92
96 -83 52 -261 140 -348 171 -36 13 -66 28 -66 33 0 20 149 205 231 287 48 47
121 109 162 137 89 59 185 98 207 85 26 -16 97 -172 133 -293 95 -315 146
-707 172 -1343 l6 -139 -43 35 c-75 60 -151 105 -223 133 -415 155 -796 -31
-1035 -506 -163 -324 -292 -866 -331 -1384 -16 -219 -1 -196 -123 -196 l-105
0 -5 52 c-3 29 -10 114 -16 188 -32 389 -122 837 -225 1116 -135 367 -311 598
-540 709 -259 126 -547 91 -791 -96 -28 -21 -53 -39 -55 -39 -6 0 -1 172 12
410 20 391 64 710 134 975 54 208 133 385 172 385 9 0 53 -18 97 -39z m259
-1955 c280 -137 507 -832 553 -1691 7 -120 9 -132 44 -204 49 -101 111 -181
221 -286 l92 -87 -81 41 c-384 193 -937 610 -1766 1332 -4 4 11 31 34 61 58
73 95 131 201 320 205 367 312 489 467 534 71 20 170 12 235 -20z"/>
<path d="M1224 2445 c-39 -26 -48 -66 -35 -153 15 -98 57 -188 116 -247 53
-53 167 -112 237 -121 43 -6 49 -4 77 24 37 37 39 68 10 155 -47 139 -149 263
-269 325 -69 35 -104 40 -136 17z"/>
<path d="M3781 2455 c-61 -27 -156 -102 -199 -157 -51 -66 -99 -167 -114 -241
-11 -52 -10 -59 8 -84 33 -43 72 -49 151 -24 185 60 297 213 298 404 0 63 -2
71 -28 93 -32 27 -67 30 -116 9z"/>
</g>
</svg>
