<?xml version="1.0" standalone="no"?>
<!DOCTYPE svg PUBLIC "-//W3C//DTD SVG 20010904//EN"
 "http://www.w3.org/TR/2001/REC-SVG-20010904/DTD/svg10.dtd">
<svg version="1.0" xmlns="http://www.w3.org/2000/svg"
 width="512.000000pt" height="512.000000pt" viewBox="0 0 512.000000 512.000000"
 preserveAspectRatio="xMidYMid meet">

<g transform="translate(0.000000,512.000000) scale(0.100000,-0.100000)"
fill="#000000" stroke="none">
<path d="M2327 4765 c-125 -189 -238 -367 -252 -394 -130 -257 -17 -626 232
-759 207 -110 461 -73 623 90 169 171 219 465 113 670 -35 70 -473 738 -483
738 -4 0 -109 -155 -233 -345z"/>
<path d="M830 4246 c0 -3 -31 -149 -70 -325 -38 -176 -70 -339 -70 -363 0
-238 224 -448 453 -424 205 21 357 195 360 411 1 102 -20 175 -76 257 -39 56
-71 83 -313 255 -247 176 -284 201 -284 189z"/>
<path d="M4030 4075 c-135 -96 -267 -196 -294 -221 -122 -118 -157 -328 -80
-490 77 -164 270 -263 435 -224 192 45 338 226 339 418 0 24 -31 187 -70 363
-38 176 -70 322 -70 325 0 12 -35 -11 -260 -171z"/>
<path d="M2401 3134 c-73 -20 -163 -60 -215 -98 -40 -29 -994 -1069 -1063
-1159 -46 -60 -91 -157 -115 -246 -17 -67 -20 -105 -19 -311 3 -600 77 -906
298 -1230 l58 -85 1215 0 1215 0 58 85 c116 168 211 399 251 605 29 148 37
248 43 546 5 258 3 306 -11 373 -27 117 -95 244 -180 335 -40 42 -268 292
-508 556 -239 264 -452 495 -473 514 -47 41 -158 95 -240 116 -75 19 -241 19
-314 -1z"/>
<path d="M57 2628 c-32 -200 -58 -381 -57 -403 2 -201 172 -408 371 -454 140
-33 292 13 400 120 149 146 182 376 83 571 -47 93 -119 150 -428 343 -159 99
-294 181 -300 183 -8 2 -31 -123 -69 -360z"/>
<path d="M4689 2800 c-219 -137 -317 -204 -352 -241 -84 -90 -127 -202 -127
-329 0 -220 136 -401 343 -456 232 -62 486 100 552 351 8 33 15 77 15 100 1
50 -112 765 -120 765 -4 0 -143 -85 -311 -190z"/>
</g>
</svg>
