<?xml version="1.0" standalone="no"?>
<!DOCTYPE svg PUBLIC "-//W3C//DTD SVG 20010904//EN"
 "http://www.w3.org/TR/2001/REC-SVG-20010904/DTD/svg10.dtd">
<svg version="1.0" xmlns="http://www.w3.org/2000/svg"
 width="512.000000pt" height="512.000000pt" viewBox="0 0 512.000000 512.000000"
 preserveAspectRatio="xMidYMid meet">

<g transform="translate(0.000000,512.000000) scale(0.100000,-0.100000)"
fill="#000000" stroke="none">
<path d="M2521 4803 c-19 -76 -49 -172 -66 -213 -35 -82 -55 -160 -55 -216 0
-118 124 -175 205 -94 l30 31 -2 132 c-2 122 -7 167 -60 465 -3 17 -9 32 -12
32 -4 0 -22 -62 -40 -137z"/>
<path d="M1881 4643 c-19 -76 -49 -172 -66 -213 -35 -82 -55 -160 -55 -216 0
-118 124 -175 205 -94 l30 31 -2 132 c-2 122 -7 167 -60 465 -3 17 -9 32 -12
32 -4 0 -22 -62 -40 -137z"/>
<path d="M3247 4638 c-31 -170 -51 -359 -45 -435 4 -44 11 -60 34 -84 38 -38
89 -47 137 -24 84 39 88 157 12 335 -17 41 -47 137 -66 213 -18 75 -36 137
-39 137 -4 0 -18 -64 -33 -142z"/>
<path d="M1161 4243 c-19 -76 -49 -172 -66 -213 -35 -82 -55 -160 -55 -216 0
-118 124 -175 205 -94 l30 31 -2 132 c-2 122 -7 167 -60 465 -3 17 -9 32 -12
32 -4 0 -22 -62 -40 -137z"/>
<path d="M2397 3986 c-231 -86 -311 -424 -153 -653 18 -26 54 -62 80 -80 181
-125 396 -16 461 234 49 188 -35 406 -187 484 -53 27 -149 35 -201 15z"/>
<path d="M1677 3906 c-231 -86 -311 -424 -153 -653 18 -26 54 -62 80 -80 181
-125 396 -16 461 234 49 188 -35 406 -187 484 -53 27 -149 35 -201 15z"/>
<path d="M3197 3906 c-231 -86 -311 -424 -153 -653 18 -26 54 -62 80 -80 181
-125 396 -16 461 234 49 188 -35 406 -187 484 -53 27 -149 35 -201 15z"/>
<path d="M3887 3758 c-31 -170 -51 -359 -45 -435 4 -44 11 -60 34 -84 38 -38
89 -47 137 -24 84 39 88 157 12 335 -17 41 -47 137 -66 213 -18 75 -36 137
-39 137 -4 0 -18 -64 -33 -142z"/>
<path d="M975 3503 c-49 -26 -85 -65 -117 -127 -111 -220 -52 -551 114 -637
184 -95 358 209 294 512 -42 197 -176 313 -291 252z"/>
<path d="M4015 3023 c-49 -26 -85 -65 -117 -127 -111 -220 -52 -551 114 -637
184 -95 358 209 294 512 -42 197 -176 313 -291 252z"/>
<path d="M1469 2706 c-81 -29 -119 -72 -159 -180 -29 -75 -81 -127 -156 -155
-85 -32 -129 -64 -161 -118 -27 -47 -28 -52 -31 -228 -2 -99 2 -229 8 -290 33
-300 164 -628 311 -778 194 -195 486 -209 703 -33 206 169 417 271 671 327 91
19 140 22 530 28 411 6 433 8 490 29 236 87 376 347 307 570 -34 108 -75 153
-229 253 -52 34 -74 57 -128 140 -110 167 -169 197 -405 209 -200 10 -267 26
-425 104 -275 136 -276 136 -849 136 -334 -1 -450 -4 -477 -14z"/>
<path d="M2363 782 c-265 -94 -268 -467 -4 -591 47 -22 69 -26 141 -26 152 1
242 64 319 225 39 83 45 103 45 160 0 98 -51 177 -144 226 -53 28 -284 32
-357 6z"/>
</g>
</svg>
