<?xml version="1.0" standalone="no"?>
<!DOCTYPE svg PUBLIC "-//W3C//DTD SVG 20010904//EN"
 "http://www.w3.org/TR/2001/REC-SVG-20010904/DTD/svg10.dtd">
<svg version="1.0" xmlns="http://www.w3.org/2000/svg"
 width="512.000000pt" height="512.000000pt" viewBox="0 0 512.000000 512.000000"
 preserveAspectRatio="xMidYMid meet">

<g transform="translate(0.000000,512.000000) scale(0.100000,-0.100000)"
fill="#000000" stroke="none">
<path d="M1545 3551 c-131 -33 -210 -168 -171 -294 20 -67 57 -111 118 -141
43 -22 66 -26 135 -26 96 0 123 16 123 73 0 52 -28 71 -113 75 -78 4 -110 22
-121 68 -9 35 18 80 55 93 23 8 315 11 991 11 1054 0 1015 2 1036 -59 13 -36
8 -56 -21 -88 l-20 -23 -790 0 -789 0 -30 -30 c-24 -25 -29 -36 -23 -58 15
-60 21 -62 217 -62 l178 0 0 -152 -1 -153 -23 45 c-39 74 -74 96 -122 75 -24
-10 -54 -58 -173 -274 -79 -144 -146 -263 -150 -265 -3 -2 -73 117 -155 264
-211 381 -196 381 -406 -4 -80 -146 -147 -265 -150 -265 -3 -1 -72 120 -153
269 -159 286 -168 298 -228 278 -28 -9 -34 -19 -219 -356 -58 -105 -107 -191
-110 -191 -3 0 -72 121 -153 269 -123 222 -153 270 -176 278 -37 13 -88 -9
-96 -40 -3 -13 -4 -253 -3 -535 3 -502 3 -512 24 -540 12 -15 36 -37 55 -48
33 -20 57 -20 1099 -25 l1064 -5 6 -30 c9 -44 30 -73 70 -98 33 -21 46 -22
240 -22 230 0 250 5 293 75 21 33 22 46 22 250 l0 215 -33 67 c-29 59 -89 129
-121 139 -7 3 27 74 90 187 89 161 103 181 114 165 6 -10 70 -123 140 -252 71
-129 139 -246 150 -259 24 -28 73 -34 99 -13 8 7 81 132 162 278 128 232 148
262 158 246 7 -10 70 -123 141 -252 71 -129 138 -246 150 -259 24 -28 73 -34
99 -13 8 7 81 132 162 278 80 145 148 263 150 261 2 -2 67 -118 144 -258 78
-140 150 -264 160 -274 22 -22 72 -25 94 -7 9 7 64 100 123 207 l108 194 3
-322 c1 -178 0 -328 -3 -335 -3 -10 -198 -13 -943 -13 -897 0 -940 -1 -955
-18 -24 -27 -22 -85 4 -108 20 -18 53 -19 963 -22 1050 -3 999 -6 1054 66 l27
35 3 511 c1 281 0 521 -3 534 -8 31 -59 53 -96 40 -23 -8 -53 -56 -176 -278
-81 -148 -150 -269 -153 -270 -3 0 -69 117 -148 259 -79 143 -151 266 -160
274 -22 19 -40 23 -74 14 -22 -6 -49 -48 -169 -264 -78 -142 -147 -264 -153
-270 -8 -9 -46 51 -154 246 -167 302 -176 313 -238 286 -24 -10 -54 -58 -173
-274 -79 -144 -146 -263 -150 -265 -3 -2 -71 112 -149 254 -79 142 -151 265
-160 273 -43 39 -92 22 -131 -45 l-31 -53 0 148 0 147 388 0 388 0 52 26 c175
87 170 326 -8 420 -33 18 -80 19 -1040 21 -553 0 -1018 -2 -1035 -6z m1095
-761 c0 -227 -3 -296 -14 -313 -7 -12 -25 -44 -41 -71 l-27 -48 -39 68 -38 69
-1 293 0 292 80 0 80 0 0 -290z m-1709 -371 c77 -140 149 -263 159 -273 22
-22 72 -25 95 -6 8 7 81 131 161 277 81 145 148 262 150 260 2 -2 67 -118 145
-258 77 -140 148 -263 159 -273 21 -22 72 -25 94 -7 8 7 81 132 162 278 128
232 148 262 158 246 20 -29 186 -333 186 -339 0 -4 -20 -24 -45 -46 -27 -23
-57 -65 -77 -105 -29 -60 -32 -75 -36 -184 l-4 -119 -1040 0 c-825 0 -1040 3
-1043 13 -3 7 -4 157 -3 334 l3 321 105 -189 c58 -105 113 -197 123 -206 24
-22 74 -21 97 3 10 10 82 135 160 277 79 142 144 256 147 254 2 -3 67 -119
144 -258z m1713 -242 c69 -39 76 -65 76 -279 l0 -188 -161 0 -160 0 3 198 c3
185 4 199 25 228 46 65 144 83 217 41z"/>
<path d="M2505 2010 c-28 -31 -24 -79 9 -107 36 -31 61 -29 97 6 34 35 36 59
8 95 -26 33 -86 37 -114 6z"/>
</g>
</svg>
