<?xml version="1.0" standalone="no"?>
<!DOCTYPE svg PUBLIC "-//W3C//DTD SVG 20010904//EN"
 "http://www.w3.org/TR/2001/REC-SVG-20010904/DTD/svg10.dtd">
<svg version="1.0" xmlns="http://www.w3.org/2000/svg"
 width="512.000000pt" height="512.000000pt" viewBox="0 0 512.000000 512.000000"
 preserveAspectRatio="xMidYMid meet">

<g transform="translate(0.000000,512.000000) scale(0.100000,-0.100000)"
fill="#000000" stroke="none">
<path d="M1575 5109 c-88 -13 -153 -34 -241 -78 -153 -77 -271 -199 -344 -356
-64 -137 -72 -181 -77 -457 l-5 -248 91 0 91 0 0 36 c0 52 27 102 73 132 l41
27 650 3 651 2 45 -22 c54 -28 85 -72 94 -133 l7 -45 85 0 84 0 0 233 c0 249
-9 316 -53 427 -51 126 -152 258 -255 333 -70 52 -182 105 -270 128 -66 18
-115 21 -342 24 -146 2 -292 -1 -325 -6z"/>
<path d="M1480 3840 c-17 -17 -20 -33 -20 -104 0 -79 2 -86 26 -105 33 -26 65
-27 95 -2 21 16 24 30 27 98 3 68 1 81 -18 106 -27 34 -80 37 -110 7z"/>
<path d="M2149 3841 c-19 -15 -24 -30 -27 -85 -5 -77 9 -119 44 -135 35 -16
48 -14 78 10 24 19 26 26 26 105 0 71 -3 87 -20 104 -25 25 -71 26 -101 1z"/>
<path d="M920 3218 c0 -180 -9 -215 -66 -271 -39 -40 -76 -57 -142 -68 -67
-10 -82 -26 -82 -86 0 -83 51 -161 135 -206 38 -21 55 -22 343 -25 l302 -3 0
35 c0 28 -6 38 -35 56 -49 30 -143 136 -188 211 -66 112 -89 202 -95 372 l-4
147 -84 0 -84 0 0 -162z"/>
<path d="M2640 3258 c0 -156 -18 -240 -75 -355 -33 -67 -65 -112 -119 -170
-41 -43 -86 -85 -100 -92 -20 -11 -26 -22 -26 -48 l0 -34 303 3 c287 3 304 4
342 24 83 45 136 123 139 205 1 61 -14 77 -88 89 -76 12 -133 45 -171 98 l-30
44 -3 179 -3 179 -85 0 -84 0 0 -122z"/>
<path d="M1625 3208 c-26 -20 -27 -25 -22 -78 24 -269 387 -331 503 -85 34 71
33 137 -2 164 -33 26 -54 26 -87 1 -16 -13 -28 -35 -32 -62 -5 -28 -18 -53
-40 -75 -28 -28 -40 -33 -80 -33 -40 0 -52 5 -79 33 -22 22 -35 46 -40 75 -12
77 -66 104 -121 60z"/>
</g>
</svg>
